<?xml version="1.0" encoding="UTF-8" standalone="no" ?>
<!DOCTYPE svg PUBLIC "-//W3C//DTD SVG 1.1//EN" "http://www.w3.org/Graphics/SVG/1.1/DTD/svg11.dtd">
<svg xmlns="http://www.w3.org/2000/svg" xmlns:xlink="http://www.w3.org/1999/xlink" version="1.1" width="1280" height="1024" viewBox="0 0 1280 1024" xml:space="preserve">
<desc>Created with Fabric.js 3.1.0</desc>
<defs>
</defs>
<g transform="matrix(1.9692780337941629 0 0 1.9692780337941629 640.0153846153846 512.012312418764)" id="background-logo"  >
<rect style="stroke: none; stroke-width: 1; stroke-dasharray: none; stroke-linecap: butt; stroke-dashoffset: 0; stroke-linejoin: miter; stroke-miterlimit: 4; fill: rgb(242, 116, 148); fill-rule: nonzero; opacity: 1;"  paint-order="stroke"  x="-325" y="-260" rx="0" ry="0" width="650" height="520" />
</g>
<g transform="matrix(1.9692780337941629 0 0 1.9692780337941629 640.015753855016 403.8868865355075)" style="" id="logo-logo"  >
	<g transform="matrix(2.725 0 0 -2.725 52.6928125 60.09312500000004)"  >
<path style="stroke: none; stroke-width: 1; stroke-dasharray: none; stroke-linecap: butt; stroke-dashoffset: 0; stroke-linejoin: miter; stroke-miterlimit: 4; fill: rgb(242,116,147); fill-rule: nonzero; opacity: 1;"  paint-order="stroke"  transform=" translate(-19.330000000000002, -23.055)" d="m 0 0 l 15.9 43.6 l 22.76 2.51 z" stroke-linecap="round" />
</g>
	<g transform="matrix(2.725 0 0 -2.725 52.692812499999945 -26.255874999999975)"  >
<path style="stroke: none; stroke-width: 1; stroke-dasharray: none; stroke-linecap: butt; stroke-dashoffset: 0; stroke-linejoin: miter; stroke-miterlimit: 4; fill: rgb(248,173,174); fill-rule: nonzero; opacity: 1;"  paint-order="stroke"  transform=" translate(-19.33, 11.14)" d="M 0 0 H 27.67 L 38.66 -19.77 L 15.9 -22.28 Z" stroke-linecap="round" />
</g>
	<g transform="matrix(2.725 0 0 -2.725 21.67981249999997 33.15412500000002)"  >
<path style="stroke: none; stroke-width: 1; stroke-dasharray: none; stroke-linecap: butt; stroke-dashoffset: 0; stroke-linejoin: miter; stroke-miterlimit: 4; fill: rgb(244,136,156); fill-rule: nonzero; opacity: 1;"  paint-order="stroke"  transform=" translate(-7.95, 32.94)" d="M 0 0 L 15.9 -22.28 L 0 -65.88 Z" stroke-linecap="round" />
</g>
	<g transform="matrix(2.725 0 0 -2.725 -21.665187500000002 33.15412500000002)"  >
<path style="stroke: none; stroke-width: 1; stroke-dasharray: none; stroke-linecap: butt; stroke-dashoffset: 0; stroke-linejoin: miter; stroke-miterlimit: 4; fill: rgb(245,154,165); fill-rule: nonzero; opacity: 1;"  paint-order="stroke"  transform=" translate(7.955, 32.94)" d="m 0 0 v -65.88 l -15.91 43.6 z" stroke-linecap="round" />
</g>
	<g transform="matrix(2.725 0 0 -2.725 -52.67918750000001 60.09312500000004)"  >
<path style="stroke: none; stroke-width: 1; stroke-dasharray: none; stroke-linecap: butt; stroke-dashoffset: 0; stroke-linejoin: miter; stroke-miterlimit: 4; fill: rgb(248,173,174); fill-rule: nonzero; opacity: 1;"  paint-order="stroke"  transform=" translate(3.4250000000000007, 20.545)" d="M 0 0 L 15.91 -43.6 L -22.76 2.51 Z" stroke-linecap="round" />
</g>
	<g transform="matrix(2.725 0 0 -2.725 -52.67918750000001 -26.25687499999998)"  >
<path style="stroke: none; stroke-width: 1; stroke-dasharray: none; stroke-linecap: butt; stroke-dashoffset: 0; stroke-linejoin: miter; stroke-miterlimit: 4; fill: rgb(242,116,147); fill-rule: nonzero; opacity: 1;"  paint-order="stroke"  transform=" translate(3.4250000000000007, -11.14)" d="m 0 0 l -22.76 2.51 l 10.84 19.77 h 27.83 z" stroke-linecap="round" />
</g>
	<g transform="matrix(2.725 0 0 -2.725 56.472812499999975 -91.12987499999997)"  >
<path style="stroke: none; stroke-width: 1; stroke-dasharray: none; stroke-linecap: butt; stroke-dashoffset: 0; stroke-linejoin: miter; stroke-miterlimit: 4; fill: rgb(240,90,137); fill-rule: nonzero; opacity: 1;"  paint-order="stroke"  transform=" translate(6.936, -11.665)" d="M 0 0 L -13.872 11.66 L 0 23.33 Z" stroke-linecap="round" />
</g>
	<g transform="matrix(2.725 0 0 -2.725 37.55681249999998 -75.22887499999999)"  >
<path style="stroke: none; stroke-width: 1; stroke-dasharray: none; stroke-linecap: butt; stroke-dashoffset: 0; stroke-linejoin: miter; stroke-miterlimit: 4; fill: rgb(242,114,146); fill-rule: nonzero; opacity: 1;"  paint-order="stroke"  transform=" translate(0.005000000000000782, 5.83)" d="M 0 0 L 13.872 -11.66 H -13.882 Z" stroke-linecap="round" />
</g>
	<g transform="matrix(2.725 0 0 -2.725 -0.24918750000006185 -91.13087499999997)"  >
<path style="stroke: none; stroke-width: 1; stroke-dasharray: none; stroke-linecap: butt; stroke-dashoffset: 0; stroke-linejoin: miter; stroke-miterlimit: 4; fill: rgb(243,133,155); fill-rule: nonzero; opacity: 1;"  paint-order="stroke"  transform=" translate(13.8775, -0.004999999999999005)" d="M 0 0 L -13.882 -11.66 L -27.755 0 L -13.882 11.67 Z" stroke-linecap="round" />
</g>
	<g transform="matrix(2.725 0 0 -2.725 -38.069187500000055 -75.22887499999999)"  >
<path style="stroke: none; stroke-width: 1; stroke-dasharray: none; stroke-linecap: butt; stroke-dashoffset: 0; stroke-linejoin: miter; stroke-miterlimit: 4; fill: rgb(245,152,163); fill-rule: nonzero; opacity: 1;"  paint-order="stroke"  transform=" translate(13.873, -5.83)" d="m 0 0 h -27.746 l 13.873 11.66 z" stroke-linecap="round" />
</g>
	<g transform="matrix(2.725 0 0 -2.725 -56.97118750000004 -91.12987499999997)"  >
<path style="stroke: none; stroke-width: 1; stroke-dasharray: none; stroke-linecap: butt; stroke-dashoffset: 0; stroke-linejoin: miter; stroke-miterlimit: 4; fill: rgb(248,171,173); fill-rule: nonzero; opacity: 1;"  paint-order="stroke"  transform=" translate(-6.9365, -11.665)" d="M 0 0 V 23.33 L 13.873 11.66 Z" stroke-linecap="round" />
</g>
</g>
<g transform="matrix(1.9692780337941629 0 0 1.9692780337941629 639.2700128795935 731.666088171717)" id="text-logo-path"  >
<path style="stroke: none; stroke-width: 1; stroke-dasharray: none; stroke-linecap: butt; stroke-dashoffset: 0; stroke-linejoin: miter; stroke-miterlimit: 4; fill: rgb(243,93,141); fill-rule: nonzero; opacity: 1;"  paint-order="stroke"  transform=" translate(-267.33, 18.555)" d="M 27.99 -30.27 L 27.99 -30.27 Q 23.09 -30.27 19.64 -26.82 Q 16.19 -23.37 16.19 -18.47 L 16.19 -18.47 Q 16.19 -13.62 19.64 -10.15 Q 23.09 -6.67 27.99 -6.67 L 27.99 -6.67 Q 32.89 -6.67 36.34 -10.15 Q 39.79 -13.62 39.79 -18.47 L 39.79 -18.47 Q 39.79 -23.37 36.34 -26.82 Q 32.89 -30.27 27.99 -30.27 Z M 27.99 -36.99 L 27.99 -36.99 Q 35.63 -36.99 41.04 -31.58 Q 46.45 -26.16 46.45 -18.47 L 46.45 -18.47 Q 46.45 -10.83 41.04 -5.42 Q 35.63 0 27.99 0 L 27.99 0 Q 20.29 0 14.88 -5.42 Q 9.46 -10.83 9.46 -18.47 L 9.46 -18.47 Q 9.46 -26.16 14.88 -31.58 Q 20.29 -36.99 27.99 -36.99 Z M 67.03 -36.65 L 67.03 -36.99 L 67.37 -36.99 L 67.66 -36.99 L 73.42 -36.99 L 73.7 -36.99 L 79.46 -36.99 L 79.8 -36.99 L 79.8 -36.99 Q 84.93 -36.71 88.44 -33.17 Q 91.94 -29.64 91.94 -24.57 L 91.94 -24.57 Q 91.94 -20.98 90.12 -18.07 Q 88.29 -15.16 85.33 -13.57 L 85.33 -13.57 L 85.67 -12.83 L 85.78 -12.54 L 91.77 -0.63 L 91.94 -0.63 L 91.94 0 L 91.6 0 L 85.5 0 L 85.22 0 L 85.22 -0.23 L 79.29 -12.08 L 73.7 -12.08 L 73.7 -0.63 L 73.7 0 L 73.42 0 L 67.66 0 L 67.37 0 L 67.03 0 L 67.03 -0.34 L 67.03 -0.63 L 67.03 -36.37 L 67.03 -36.65 Z M 79.46 -30.27 L 73.7 -30.27 L 73.7 -18.81 L 79.46 -18.81 Q 81.85 -18.81 83.53 -20.49 Q 85.22 -22.17 85.22 -24.57 L 85.22 -24.57 Q 85.22 -26.9 83.53 -28.59 Q 81.85 -30.27 79.46 -30.27 L 79.46 -30.27 Z M 113.2 -36.71 L 113.2 -37.05 L 113.54 -37.05 L 113.83 -37.05 L 119.59 -37.05 L 119.93 -37.05 L 119.93 -36.71 L 119.93 -0.68 L 119.93 -0.06 L 119.59 -0.06 L 113.83 -0.06 L 113.54 -0.06 L 113.2 -0.06 L 113.2 -0.4 L 113.2 -0.68 L 113.2 -36.42 L 113.2 -36.71 Z M 175.96 -36.77 L 175.96 -37.11 L 176.3 -37.11 L 176.59 -37.11 L 182.34 -37.11 L 182.69 -37.11 L 182.69 -37.05 Q 187.82 -36.82 191.29 -33.26 Q 194.77 -29.7 194.77 -24.62 L 194.77 -24.62 Q 194.77 -23.94 194.71 -23.26 L 194.71 -23.26 Q 197.51 -21.6 199.19 -18.78 Q 200.87 -15.96 200.87 -12.54 L 200.87 -12.54 Q 200.87 -7.47 197.36 -3.9 Q 193.86 -0.34 188.73 -0.11 L 188.73 -0.11 L 188.73 -0.06 L 188.39 -0.06 L 182.69 -0.06 L 182.34 -0.06 L 176.59 -0.06 L 176.3 -0.06 L 175.96 -0.06 L 175.96 -0.4 L 175.96 -0.74 L 175.96 -36.42 L 175.96 -36.77 Z M 182.69 -30.38 L 182.69 -30.38 L 182.69 -18.92 Q 184.97 -19.1 186.53 -20.72 Q 188.1 -22.34 188.1 -24.62 L 188.1 -24.62 Q 188.1 -26.96 186.53 -28.56 Q 184.97 -30.15 182.69 -30.38 Z M 192.09 -16.93 L 192.09 -16.93 Q 188.56 -12.54 182.69 -12.2 L 182.69 -12.2 L 182.69 -6.78 L 188.39 -6.78 Q 190.78 -6.78 192.46 -8.46 Q 194.14 -10.15 194.14 -12.54 L 194.14 -12.54 Q 194.14 -15.16 192.09 -16.93 Z M 220.88 -36.71 L 220.88 -36.99 L 221.22 -36.99 L 221.5 -36.99 L 227.26 -36.99 L 227.54 -36.99 L 239.34 -36.99 L 239.69 -36.99 L 239.69 -36.71 L 239.69 -30.95 L 239.69 -30.27 L 239.34 -30.27 L 227.54 -30.27 L 227.54 -21.83 L 236.32 -21.83 L 236.66 -21.83 L 236.66 -21.55 L 236.66 -15.79 L 236.66 -15.16 L 236.32 -15.16 L 227.54 -15.16 L 227.54 -6.67 L 239.34 -6.67 L 239.69 -6.67 L 239.69 -6.38 L 239.69 -0.63 L 239.69 0 L 239.34 0 L 227.26 0 L 221.5 0 L 221.22 0 L 220.88 0 L 220.88 -0.34 L 220.88 -0.63 L 220.88 -36.37 L 220.88 -36.71 Z M 261 -36.65 L 261 -36.99 L 261.35 -36.99 L 261.63 -36.99 L 267.39 -36.99 L 267.67 -36.99 L 273.43 -36.99 L 273.77 -36.99 L 273.77 -36.99 Q 278.9 -36.71 282.41 -33.17 Q 285.91 -29.64 285.91 -24.57 L 285.91 -24.57 Q 285.91 -20.98 284.09 -18.07 Q 282.26 -15.16 279.3 -13.57 L 279.3 -13.57 L 279.64 -12.83 L 279.76 -12.54 L 285.74 -0.63 L 285.91 -0.63 L 285.91 0 L 285.57 0 L 279.47 0 L 279.19 0 L 279.19 -0.23 L 273.26 -12.08 L 267.67 -12.08 L 267.67 -0.63 L 267.67 0 L 267.39 0 L 261.63 0 L 261.35 0 L 261 0 L 261 -0.34 L 261 -0.63 L 261 -36.37 L 261 -36.65 Z M 273.43 -30.27 L 267.67 -30.27 L 267.67 -18.81 L 273.43 -18.81 Q 275.82 -18.81 277.5 -20.49 Q 279.19 -22.17 279.19 -24.57 L 279.19 -24.57 Q 279.19 -26.9 277.5 -28.59 Q 275.82 -30.27 273.43 -30.27 L 273.43 -30.27 Z M 307.17 -36.37 L 307.17 -36.71 L 307.17 -36.99 L 307.52 -36.99 L 307.8 -36.99 L 313.44 -36.99 L 313.67 -36.99 L 313.84 -36.99 L 313.84 -36.77 L 325.64 -22.06 L 337.44 -36.82 L 337.44 -36.99 L 337.61 -36.99 L 337.9 -36.99 L 338.12 -36.99 L 343.88 -36.99 L 344.17 -36.99 L 344.17 -36.71 L 344.17 -0.63 L 344.17 0 L 343.88 0 L 338.12 0 L 337.78 0 L 337.44 0 L 337.44 -0.34 L 337.44 -26.62 L 329 -15.39 L 329 -15.16 L 328.83 -15.16 L 328.78 -15.05 L 328.61 -15.16 L 322.73 -15.16 L 322.56 -15.05 L 322.45 -15.16 L 322.34 -15.16 L 322.34 -15.39 L 313.84 -26.62 L 313.84 -0.63 L 313.84 0 L 313.56 0 L 307.8 0 L 307.52 0 L 307.17 0 L 307.17 -0.34 L 307.17 -0.63 L 307.17 -36.37 Z M 365.88 -36.71 L 365.88 -36.99 L 366.23 -36.99 L 366.51 -36.99 L 372.27 -36.99 L 372.61 -36.99 L 372.61 -36.71 L 372.61 -14.31 L 372.61 -13.96 Q 372.61 -10.94 374.72 -8.81 Q 376.83 -6.67 379.85 -6.67 L 379.85 -6.67 Q 382.81 -6.67 384.95 -8.81 Q 387.09 -10.94 387.09 -13.96 L 387.09 -13.96 L 387.09 -36.37 L 387.09 -36.71 L 387.09 -36.99 L 387.43 -36.99 L 387.71 -36.99 L 393.47 -36.99 L 393.81 -36.99 L 393.81 -36.71 L 393.81 -14.31 L 393.81 -13.96 L 393.81 -13.45 L 393.81 -13.45 Q 393.47 -7.7 389.48 -3.85 Q 385.49 0 379.85 0 L 379.85 0 Q 374.09 0 369.99 -4.08 Q 365.88 -8.15 365.88 -13.96 L 365.88 -13.96 L 365.88 -14.14 L 365.88 -14.31 L 365.88 -36.37 L 365.88 -36.71 Z M 422.2 -30.27 L 422.2 -30.27 L 422.2 -6.67 Q 427.1 -6.95 430.38 -10.32 Q 433.66 -13.68 433.66 -18.47 L 433.66 -18.47 Q 433.66 -23.31 430.38 -26.68 Q 427.1 -30.04 422.2 -30.27 Z M 415.47 -36.71 L 415.47 -36.99 L 416.1 -36.99 L 421.57 -36.99 L 421.86 -36.99 L 422.2 -36.99 L 422.2 -36.99 Q 429.89 -36.65 435.14 -31.35 Q 440.38 -26.05 440.38 -18.47 L 440.38 -18.47 Q 440.38 -10.94 435.14 -5.64 Q 429.89 -0.34 422.2 0 L 422.2 0 L 422.2 0 L 421.86 0 L 418.55 0 L 416.1 0 L 415.82 0 L 415.47 0 L 415.47 -0.34 L 415.47 -36.37 L 415.47 -36.71 Z M 460.96 -36.71 L 460.96 -36.99 L 461.3 -36.99 L 461.59 -36.99 L 467.34 -36.99 L 467.63 -36.99 L 479.43 -36.99 L 479.77 -36.99 L 479.77 -36.71 L 479.77 -30.95 L 479.77 -30.27 L 479.43 -30.27 L 467.63 -30.27 L 467.63 -21.83 L 476.41 -21.83 L 476.75 -21.83 L 476.75 -21.55 L 476.75 -15.79 L 476.75 -15.16 L 476.41 -15.16 L 467.63 -15.16 L 467.63 -6.67 L 479.43 -6.67 L 479.77 -6.67 L 479.77 -6.38 L 479.77 -0.63 L 479.77 0 L 479.43 0 L 467.34 0 L 461.59 0 L 461.3 0 L 460.96 0 L 460.96 -0.34 L 460.96 -0.63 L 460.96 -36.37 L 460.96 -36.71 Z M 500.29 -36.71 L 500.29 -36.99 L 500.92 -36.99 L 524.86 -36.99 L 525.2 -36.99 L 525.2 -36.37 L 525.03 -36.37 L 510.21 -6.67 L 524.86 -6.67 L 525.2 -6.67 L 525.2 -6.38 L 525.2 -0.63 L 525.2 0 L 524.86 0 L 500.63 0 L 500.29 0 L 500.29 -0.63 L 500.4 -0.63 L 515.22 -30.27 L 500.92 -30.27 L 500.29 -30.27 L 500.29 -30.61 L 500.29 -30.95 L 500.29 -36.37 L 500.29 -36.71 Z" stroke-linecap="round" />
</g>
<g transform="matrix(1.9692780337941629 0 0 1.9692780337941629 640.2978726261373 837.2591943060461)" id="tagline-ed70f9c1-165c-4b39-8fe1-be3f715c034e-logo-path"  >
<path style="stroke: none; stroke-width: 1; stroke-dasharray: none; stroke-linecap: butt; stroke-dashoffset: 0; stroke-linejoin: miter; stroke-miterlimit: 4; fill: rgb(244,136,156); fill-rule: nonzero; opacity: 1;"  paint-order="stroke"  transform=" translate(-321.48, 11.735)" d="M 6.88 -7.85 L 6.88 -7.85 Z M 8.39 -23.18 L 8.39 -23.36 L 8.6 -23.36 L 8.78 -23.36 L 12.42 -23.36 L 12.6 -23.36 L 20.05 -23.36 L 20.27 -23.36 L 20.27 -23.18 L 20.27 -19.55 L 20.27 -19.12 L 20.05 -19.12 L 12.6 -19.12 L 12.6 -13.79 L 20.05 -13.79 L 20.27 -13.79 L 20.27 -13.61 L 20.27 -9.97 L 20.27 -9.58 L 20.05 -9.58 L 12.6 -9.58 L 12.6 -0.4 L 12.6 0 L 12.42 0 L 8.78 0 L 8.6 0 L 8.39 0 L 8.39 -0.22 L 8.39 -0.4 L 8.39 -22.97 L 8.39 -23.18 Z M 32.15 -23.15 L 32.15 -23.36 L 32.36 -23.36 L 32.54 -23.36 L 36.18 -23.36 L 36.36 -23.36 L 40 -23.36 L 40.21 -23.36 L 40.21 -23.36 Q 43.45 -23.18 45.67 -20.95 Q 47.88 -18.72 47.88 -15.52 L 47.88 -15.52 Q 47.88 -13.25 46.73 -11.41 Q 45.58 -9.58 43.7 -8.57 L 43.7 -8.57 L 43.92 -8.1 L 43.99 -7.92 L 47.77 -0.4 L 47.88 -0.4 L 47.88 0 L 47.66 0 L 43.81 0 L 43.63 0 L 43.63 -0.14 L 39.89 -7.63 L 36.36 -7.63 L 36.36 -0.4 L 36.36 0 L 36.18 0 L 32.54 0 L 32.36 0 L 32.15 0 L 32.15 -0.22 L 32.15 -0.4 L 32.15 -22.97 L 32.15 -23.15 Z M 40 -19.12 L 36.36 -19.12 L 36.36 -11.88 L 40 -11.88 Q 41.51 -11.88 42.57 -12.94 Q 43.63 -14 43.63 -15.52 L 43.63 -15.52 Q 43.63 -16.99 42.57 -18.05 Q 41.51 -19.12 40 -19.12 L 40 -19.12 Z M 72.11 -19.12 L 72.11 -19.12 Q 69.01 -19.12 66.83 -16.94 Q 64.66 -14.76 64.66 -11.66 L 64.66 -11.66 Q 64.66 -8.6 66.83 -6.41 Q 69.01 -4.21 72.11 -4.21 L 72.11 -4.21 Q 75.2 -4.21 77.38 -6.41 Q 79.56 -8.6 79.56 -11.66 L 79.56 -11.66 Q 79.56 -14.76 77.38 -16.94 Q 75.2 -19.12 72.11 -19.12 Z M 72.11 -23.36 L 72.11 -23.36 Q 76.93 -23.36 80.35 -19.94 Q 83.77 -16.52 83.77 -11.66 L 83.77 -11.66 Q 83.77 -6.84 80.35 -3.42 Q 76.93 0 72.11 0 L 72.11 0 Q 67.25 0 63.83 -3.42 Q 60.41 -6.84 60.41 -11.66 L 60.41 -11.66 Q 60.41 -16.52 63.83 -19.94 Q 67.25 -23.36 72.11 -23.36 Z M 100.73 -23.36 L 100.84 -23.44 L 100.91 -23.36 L 101.02 -23.36 L 101.02 -23.22 L 108.25 -14.18 L 108.25 -22.97 L 108.25 -23.18 L 108.25 -23.36 L 108.47 -23.36 L 108.65 -23.36 L 112.28 -23.36 L 112.5 -23.36 L 112.5 -23.18 L 112.5 -0.4 L 112.5 0 L 112.28 0 L 108.65 0 L 108.47 0 L 108.25 0 L 108.25 -0.22 L 108.25 -9.58 L 106.6 -9.58 L 106.49 -9.5 L 106.45 -9.58 L 106.34 -9.58 L 106.34 -9.72 L 101.02 -16.81 L 101.02 -0.4 L 101.02 0 L 100.8 0 L 97.16 0 L 96.98 0 L 96.77 0 L 96.77 -0.22 L 96.77 -0.4 L 96.77 -22.97 L 96.77 -23.18 L 96.77 -23.36 L 96.98 -23.36 L 97.16 -23.36 L 100.73 -23.36 Z M 125.1 -23.18 L 125.1 -23.4 L 125.5 -23.4 L 140.62 -23.4 L 140.83 -23.4 L 140.83 -23.18 L 140.83 -19.55 L 140.83 -19.15 L 140.62 -19.15 L 135.07 -19.15 L 135.07 -0.43 L 135.07 -0.04 L 134.86 -0.04 L 131.26 -0.04 L 131.04 -0.04 L 130.82 -0.04 L 130.82 -0.22 L 130.82 -0.43 L 130.82 -19.15 L 125.5 -19.15 L 125.1 -19.15 L 125.1 -19.37 L 125.1 -19.55 L 125.1 -23 L 125.1 -23.18 Z M 175.32 -23.18 L 175.32 -23.36 L 175.54 -23.36 L 175.72 -23.36 L 179.35 -23.36 L 179.53 -23.36 L 186.98 -23.36 L 187.2 -23.36 L 187.2 -23.18 L 187.2 -19.55 L 187.2 -19.12 L 186.98 -19.12 L 179.53 -19.12 L 179.53 -13.79 L 185.08 -13.79 L 185.29 -13.79 L 185.29 -13.61 L 185.29 -9.97 L 185.29 -9.58 L 185.08 -9.58 L 179.53 -9.58 L 179.53 -4.21 L 186.98 -4.21 L 187.2 -4.21 L 187.2 -4.03 L 187.2 -0.4 L 187.2 0 L 186.98 0 L 179.35 0 L 175.72 0 L 175.54 0 L 175.32 0 L 175.32 -0.22 L 175.32 -0.4 L 175.32 -22.97 L 175.32 -23.18 Z M 204.62 -23.36 L 204.73 -23.44 L 204.8 -23.36 L 204.91 -23.36 L 204.91 -23.22 L 212.15 -14.18 L 212.15 -22.97 L 212.15 -23.18 L 212.15 -23.36 L 212.36 -23.36 L 212.54 -23.36 L 216.18 -23.36 L 216.4 -23.36 L 216.4 -23.18 L 216.4 -0.4 L 216.4 0 L 216.18 0 L 212.54 0 L 212.36 0 L 212.15 0 L 212.15 -0.22 L 212.15 -9.58 L 210.49 -9.58 L 210.38 -9.5 L 210.35 -9.58 L 210.24 -9.58 L 210.24 -9.72 L 204.91 -16.81 L 204.91 -0.4 L 204.91 0 L 204.7 0 L 201.06 0 L 200.88 0 L 200.66 0 L 200.66 -0.22 L 200.66 -0.4 L 200.66 -22.97 L 200.66 -23.18 L 200.66 -23.36 L 200.88 -23.36 L 201.06 -23.36 L 204.62 -23.36 Z M 234.43 -19.12 L 234.43 -19.12 L 234.43 -4.21 Q 237.53 -4.39 239.6 -6.52 Q 241.67 -8.64 241.67 -11.66 L 241.67 -11.66 Q 241.67 -14.72 239.6 -16.85 Q 237.53 -18.97 234.43 -19.12 Z M 230.18 -23.18 L 230.18 -23.36 L 230.58 -23.36 L 234.04 -23.36 L 234.22 -23.36 L 234.43 -23.36 L 234.43 -23.36 Q 239.29 -23.15 242.6 -19.8 Q 245.92 -16.45 245.92 -11.66 L 245.92 -11.66 Q 245.92 -6.91 242.6 -3.56 Q 239.29 -0.22 234.43 0 L 234.43 0 L 234.43 0 L 234.22 0 L 232.13 0 L 230.58 0 L 230.4 0 L 230.18 0 L 230.18 -0.22 L 230.18 -22.97 L 230.18 -23.18 Z M 279.29 -23.4 L 279.47 -23.47 L 279.47 -23.4 L 283.14 -23.4 L 283.28 -23.47 L 283.32 -23.4 L 283.36 -23.4 L 283.36 -23.26 L 288.9 -6.66 L 290.59 -11.74 L 286.85 -23 L 286.78 -23 L 286.78 -23.18 L 286.74 -23.33 L 286.78 -23.36 L 286.78 -23.4 L 286.96 -23.4 L 287.1 -23.47 L 287.14 -23.4 L 290.77 -23.4 L 290.95 -23.47 L 290.95 -23.4 L 291.02 -23.4 L 291.02 -23.26 L 292.72 -18.11 L 294.44 -23.26 L 294.44 -23.4 L 294.48 -23.4 L 294.52 -23.47 L 294.66 -23.4 L 298.33 -23.4 L 298.33 -23.47 L 298.51 -23.4 L 298.69 -23.4 L 298.69 -23.36 L 298.73 -23.33 L 298.69 -23.18 L 298.69 -23 L 298.62 -23 L 294.84 -11.74 L 296.57 -6.62 L 302.08 -23.26 L 302.08 -23.4 L 302.15 -23.4 L 302.15 -23.47 L 302.33 -23.4 L 305.96 -23.4 L 306 -23.47 L 306.14 -23.4 L 306.32 -23.4 L 306.32 -23.36 L 306.4 -23.33 L 306.32 -23.18 L 306.32 -23 L 306.29 -23 L 298.69 -0.22 L 298.69 -0.07 L 298.62 -0.07 L 298.58 0 L 298.44 -0.07 L 294.66 -0.07 L 294.52 0 L 294.48 -0.07 L 294.44 -0.07 L 294.44 -0.22 L 292.72 -5.36 L 291.02 -0.22 L 291.02 -0.07 L 290.95 -0.07 L 290.95 0 L 290.77 -0.07 L 287.03 -0.07 L 286.85 0 L 286.85 -0.07 L 286.78 -0.07 L 286.78 -0.22 L 279.18 -23 L 279.14 -23 L 279.14 -23.18 L 279.07 -23.33 L 279.14 -23.36 L 279.14 -23.4 L 279.29 -23.4 Z M 319.03 -23.18 L 319.03 -23.36 L 319.25 -23.36 L 319.43 -23.36 L 323.06 -23.36 L 323.24 -23.36 L 330.7 -23.36 L 330.91 -23.36 L 330.91 -23.18 L 330.91 -19.55 L 330.91 -19.12 L 330.7 -19.12 L 323.24 -19.12 L 323.24 -13.79 L 328.79 -13.79 L 329 -13.79 L 329 -13.61 L 329 -9.97 L 329 -9.58 L 328.79 -9.58 L 323.24 -9.58 L 323.24 -4.21 L 330.7 -4.21 L 330.91 -4.21 L 330.91 -4.03 L 330.91 -0.4 L 330.91 0 L 330.7 0 L 323.06 0 L 319.43 0 L 319.25 0 L 319.03 0 L 319.03 -0.22 L 319.03 -0.4 L 319.03 -22.97 L 319.03 -23.18 Z M 344.38 -23.22 L 344.38 -23.44 L 344.59 -23.44 L 344.77 -23.44 L 348.41 -23.44 L 348.62 -23.44 L 348.62 -23.4 Q 351.86 -23.26 354.06 -21.01 Q 356.26 -18.76 356.26 -15.55 L 356.26 -15.55 Q 356.26 -15.12 356.22 -14.69 L 356.22 -14.69 Q 357.98 -13.64 359.05 -11.86 Q 360.11 -10.08 360.11 -7.92 L 360.11 -7.92 Q 360.11 -4.72 357.89 -2.47 Q 355.68 -0.22 352.44 -0.07 L 352.44 -0.07 L 352.44 -0.04 L 352.22 -0.04 L 348.62 -0.04 L 348.41 -0.04 L 344.77 -0.04 L 344.59 -0.04 L 344.38 -0.04 L 344.38 -0.25 L 344.38 -0.47 L 344.38 -23 L 344.38 -23.22 Z M 348.62 -19.19 L 348.62 -19.19 L 348.62 -11.95 Q 350.06 -12.06 351.05 -13.09 Q 352.04 -14.11 352.04 -15.55 L 352.04 -15.55 Q 352.04 -17.03 351.05 -18.04 Q 350.06 -19.04 348.62 -19.19 Z M 354.56 -10.69 L 354.56 -10.69 Q 352.33 -7.92 348.62 -7.7 L 348.62 -7.7 L 348.62 -4.28 L 352.22 -4.28 Q 353.74 -4.28 354.8 -5.35 Q 355.86 -6.41 355.86 -7.92 L 355.86 -7.92 Q 355.86 -9.58 354.56 -10.69 Z M 398.59 -19.12 L 398.59 -19.12 L 398.59 -4.21 Q 401.69 -4.39 403.76 -6.52 Q 405.83 -8.64 405.83 -11.66 L 405.83 -11.66 Q 405.83 -14.72 403.76 -16.85 Q 401.69 -18.97 398.59 -19.12 Z M 394.34 -23.18 L 394.34 -23.36 L 394.74 -23.36 L 398.2 -23.36 L 398.38 -23.36 L 398.59 -23.36 L 398.59 -23.36 Q 403.45 -23.15 406.76 -19.8 Q 410.08 -16.45 410.08 -11.66 L 410.08 -11.66 Q 410.08 -6.91 406.76 -3.56 Q 403.45 -0.22 398.59 0 L 398.59 0 L 398.59 0 L 398.38 0 L 396.29 0 L 394.74 0 L 394.56 0 L 394.34 0 L 394.34 -0.22 L 394.34 -22.97 L 394.34 -23.18 Z M 423.07 -23.18 L 423.07 -23.36 L 423.29 -23.36 L 423.47 -23.36 L 427.1 -23.36 L 427.28 -23.36 L 434.74 -23.36 L 434.95 -23.36 L 434.95 -23.18 L 434.95 -19.55 L 434.95 -19.12 L 434.74 -19.12 L 427.28 -19.12 L 427.28 -13.79 L 432.83 -13.79 L 433.04 -13.79 L 433.04 -13.61 L 433.04 -9.97 L 433.04 -9.58 L 432.83 -9.58 L 427.28 -9.58 L 427.28 -4.21 L 434.74 -4.21 L 434.95 -4.21 L 434.95 -4.03 L 434.95 -0.4 L 434.95 0 L 434.74 0 L 427.1 0 L 423.47 0 L 423.29 0 L 423.07 0 L 423.07 -0.22 L 423.07 -0.4 L 423.07 -22.97 L 423.07 -23.18 Z M 447.01 -22.97 L 447.01 -23.36 L 447.23 -23.36 L 451.04 -23.36 L 451.26 -23.36 L 451.26 -23.22 L 456.8 -6.59 L 462.31 -23.18 L 462.31 -23.36 L 462.53 -23.36 L 466.34 -23.36 L 466.56 -23.36 L 466.56 -22.97 L 466.52 -22.97 L 458.89 -0.18 L 458.89 0 L 458.71 0 L 454.86 0 L 454.68 0 L 454.68 -0.18 L 447.08 -22.97 L 447.01 -22.97 Z M 479.27 -23.18 L 479.27 -23.36 L 479.48 -23.36 L 479.66 -23.36 L 483.3 -23.36 L 483.48 -23.36 L 490.93 -23.36 L 491.15 -23.36 L 491.15 -23.18 L 491.15 -19.55 L 491.15 -19.12 L 490.93 -19.12 L 483.48 -19.12 L 483.48 -13.79 L 489.02 -13.79 L 489.24 -13.79 L 489.24 -13.61 L 489.24 -9.97 L 489.24 -9.58 L 489.02 -9.58 L 483.48 -9.58 L 483.48 -4.21 L 490.93 -4.21 L 491.15 -4.21 L 491.15 -4.03 L 491.15 -0.4 L 491.15 0 L 490.93 0 L 483.3 0 L 479.66 0 L 479.48 0 L 479.27 0 L 479.27 -0.22 L 479.27 -0.4 L 479.27 -22.97 L 479.27 -23.18 Z M 504.61 -23.18 L 504.61 -23.36 L 504.83 -23.36 L 505.01 -23.36 L 508.64 -23.36 L 508.86 -23.36 L 508.86 -23.18 L 508.86 -4.21 L 518.22 -4.21 L 518.44 -4.21 L 518.44 -4.03 L 518.44 -0.4 L 518.44 0 L 518.22 0 L 508.64 0 L 505.01 0 L 504.83 0 L 504.61 0 L 504.61 -0.22 L 504.61 -0.4 L 504.61 -22.97 L 504.61 -23.18 Z M 541.48 -19.12 L 541.48 -19.12 Q 538.38 -19.12 536.2 -16.94 Q 534.02 -14.76 534.02 -11.66 L 534.02 -11.66 Q 534.02 -8.6 536.2 -6.41 Q 538.38 -4.21 541.48 -4.21 L 541.48 -4.21 Q 544.57 -4.21 546.75 -6.41 Q 548.93 -8.6 548.93 -11.66 L 548.93 -11.66 Q 548.93 -14.76 546.75 -16.94 Q 544.57 -19.12 541.48 -19.12 Z M 541.48 -23.36 L 541.48 -23.36 Q 546.3 -23.36 549.72 -19.94 Q 553.14 -16.52 553.14 -11.66 L 553.14 -11.66 Q 553.14 -6.84 549.72 -3.42 Q 546.3 0 541.48 0 L 541.48 0 Q 536.62 0 533.2 -3.42 Q 529.78 -6.84 529.78 -11.66 L 529.78 -11.66 Q 529.78 -16.52 533.2 -19.94 Q 536.62 -23.36 541.48 -23.36 Z M 566.14 -23.15 L 566.14 -23.36 L 566.35 -23.36 L 566.53 -23.36 L 570.17 -23.36 L 570.38 -23.36 L 573.98 -23.36 L 574.2 -23.36 L 574.2 -23.36 Q 577.44 -23.18 579.65 -20.95 Q 581.87 -18.72 581.87 -15.52 L 581.87 -15.52 Q 581.87 -12.31 579.65 -10.06 Q 577.44 -7.81 574.2 -7.63 L 574.2 -7.63 L 574.2 -7.63 L 573.98 -7.63 L 570.38 -7.63 L 570.38 -0.4 L 570.38 0 L 570.17 0 L 566.53 0 L 566.35 0 L 566.14 0 L 566.14 -0.22 L 566.14 -0.4 L 566.14 -22.97 L 566.14 -23.15 Z M 573.98 -19.12 L 570.38 -19.12 L 570.38 -11.88 L 573.98 -11.88 Q 575.5 -11.88 576.56 -12.94 Q 577.62 -14 577.62 -15.52 L 577.62 -15.52 Q 577.62 -16.99 576.56 -18.05 Q 575.5 -19.12 573.98 -19.12 L 573.98 -19.12 Z M 595.01 -23.18 L 595.01 -23.36 L 595.22 -23.36 L 595.4 -23.36 L 599.04 -23.36 L 599.22 -23.36 L 606.67 -23.36 L 606.89 -23.36 L 606.89 -23.18 L 606.89 -19.55 L 606.89 -19.12 L 606.67 -19.12 L 599.22 -19.12 L 599.22 -13.79 L 604.76 -13.79 L 604.98 -13.79 L 604.98 -13.61 L 604.98 -9.97 L 604.98 -9.58 L 604.76 -9.58 L 599.22 -9.58 L 599.22 -4.21 L 606.67 -4.21 L 606.89 -4.21 L 606.89 -4.03 L 606.89 -0.4 L 606.89 0 L 606.67 0 L 599.04 0 L 595.4 0 L 595.22 0 L 595.01 0 L 595.01 -0.22 L 595.01 -0.4 L 595.01 -22.97 L 595.01 -23.18 Z M 620.35 -23.15 L 620.35 -23.36 L 620.57 -23.36 L 620.75 -23.36 L 624.38 -23.36 L 624.56 -23.36 L 628.2 -23.36 L 628.42 -23.36 L 628.42 -23.36 Q 631.66 -23.18 633.87 -20.95 Q 636.08 -18.72 636.08 -15.52 L 636.08 -15.52 Q 636.08 -13.25 634.93 -11.41 Q 633.78 -9.58 631.91 -8.57 L 631.91 -8.57 L 632.12 -8.1 L 632.2 -7.92 L 635.98 -0.4 L 636.08 -0.4 L 636.08 0 L 635.87 0 L 632.02 0 L 631.84 0 L 631.84 -0.14 L 628.09 -7.63 L 624.56 -7.63 L 624.56 -0.4 L 624.56 0 L 624.38 0 L 620.75 0 L 620.57 0 L 620.35 0 L 620.35 -0.22 L 620.35 -0.4 L 620.35 -22.97 L 620.35 -23.15 Z M 628.2 -19.12 L 624.56 -19.12 L 624.56 -11.88 L 628.2 -11.88 Q 629.71 -11.88 630.77 -12.94 Q 631.84 -14 631.84 -15.52 L 631.84 -15.52 Q 631.84 -16.99 630.77 -18.05 Q 629.71 -19.12 628.2 -19.12 L 628.2 -19.12 Z" stroke-linecap="round" />
</g>
</svg>